<?xml version="1.0" encoding="UTF-8" standalone="no"?>
<!-- Created with Inkscape (http://www.inkscape.org/) -->

<svg
   width="37.62561mm"
   height="37.62561mm"
   viewBox="0 0 37.62561 37.62561"
   version="1.1"
   id="svg1"
   xml:space="preserve"
   inkscape:version="1.3.2 (091e20e, 2023-11-25, custom)"
   sodipodi:docname="ico.svg"
   xmlns:inkscape="http://www.inkscape.org/namespaces/inkscape"
   xmlns:sodipodi="http://sodipodi.sourceforge.net/DTD/sodipodi-0.dtd"
   xmlns="http://www.w3.org/2000/svg"
   xmlns:svg="http://www.w3.org/2000/svg"><sodipodi:namedview
     id="namedview1"
     pagecolor="#505050"
     bordercolor="#eeeeee"
     borderopacity="1"
     inkscape:showpageshadow="0"
     inkscape:pageopacity="0"
     inkscape:pagecheckerboard="0"
     inkscape:deskcolor="#505050"
     inkscape:document-units="mm"
     inkscape:zoom="3.4671247"
     inkscape:cx="18.170676"
     inkscape:cy="83.354372"
     inkscape:window-width="2880"
     inkscape:window-height="1676"
     inkscape:window-x="-12"
     inkscape:window-y="-12"
     inkscape:window-maximized="1"
     inkscape:current-layer="layer1" /><defs
     id="defs1" /><g
     inkscape:label="Layer 1"
     inkscape:groupmode="layer"
     id="layer1"
     transform="translate(-62.562439,-206.92694)"><g
       id="g6"><path
         id="path190"
         style="fill:#e4532e;fill-opacity:1;stroke-width:0.753938;stroke-linecap:round;stroke-linejoin:round;paint-order:stroke fill markers"
         d="m 64.041929,233.05248 a 18.812635,18.812635 0 0 0 3.55844,5.49992 h 27.54974 a 18.812635,18.812635 0 0 0 3.55844,-5.49992 z" /><path
         id="path191"
         style="fill:#531a46;fill-opacity:1;stroke-width:1.4154;stroke-linecap:round;stroke-linejoin:round;paint-order:stroke fill markers"
         d="m 81.375239,206.92694 a 18.812635,18.812635 0 0 0 -18.68516,16.62535 H 100.06041 A 18.812635,18.812635 0 0 0 81.375239,206.92694 Z" /><path
         id="path192"
         style="fill:#d82b2c;fill-opacity:1;stroke-width:0.685398;stroke-linecap:round;stroke-linejoin:round;paint-order:stroke fill markers"
         d="m 62.705059,228.05227 a 18.812635,18.812635 0 0 0 1.33687,5.00021 h 34.66662 a 18.812635,18.812635 0 0 0 1.336351,-5.00021 z" /><path
         id="path193"
         style="fill:#9f1e34;fill-opacity:1;stroke-width:0.616858;stroke-linecap:round;stroke-linejoin:round;paint-order:stroke fill markers"
         d="m 62.690079,223.55229 a 18.812635,18.812635 0 0 0 -0.12764,2.18746 18.812635,18.812635 0 0 0 0.14262,2.31252 H 100.0449 a 18.812635,18.812635 0 0 0 0.14315,-2.31252 18.812635,18.812635 0 0 0 -0.12764,-2.18746 z" /><path
         id="path194"
         style="fill:#eea83a;fill-opacity:1;stroke-width:0.822478;stroke-linecap:round;stroke-linejoin:round;paint-order:stroke fill markers"
         d="m 67.600369,238.5524 a 18.812635,18.812635 0 0 0 13.75265,6.00015 h 0.0444 a 18.812635,18.812635 0 0 0 13.75265,-6.00015 z" /></g></g></svg>
